<?xml version="1.0"?>
<svg xmlns:rdf="http://www.w3.org/1999/02/22-rdf-syntax-ns#" xmlns="http://www.w3.org/2000/svg" xmlns:cc="http://web.resource.org/cc/" xmlns:dc="http://purl.org/dc/elements/1.1/" xmlns:svg="http://www.w3.org/2000/svg" id="svg2" viewBox="0 0 360.08 432.87" version="1.0">
  <g id="layer1" transform="translate(-333.63 -72.079)">
    <path id="path8809" d="m343.02 495.3c-11.296-1.4432-10.544-15.571-7.2632-28.849 0.13014-0.52664 0.30841-2.1066 0.39619-3.5109 0.18233-2.9173 8.1177-11.244 13.285-13.94l12.409-2.438c9.1238-2.4648 17.213-7.6743 26.238-10.334 3.4746-0.66472 9.5627-2.6493 13.529-4.4102 3.9665-1.7609 10.43-4.137 14.363-5.2804 10.476-0.92892 13.435-7.1675 8.1021-14.875-6.104-10.416-4.1592-15.863-11.599-23.968-3.9169-5.9188-4.3064-12.481-2.0621-34.734 1.3902-13.784 1.5926-15.066 3.702-23.435 0.7079-2.8087 1.3412-8.5539 1.4073-12.767 2.4336-13.798 1.3485-40.177 13.719-43.374 19.724-5.0977 39.831-18.637 56.915-24.176 11.664-7.0057 3.3051-22.673-3.6813-39.04l-1.4694-1.471c2.0182 30.678-0.76496 33.17-2.5308 30.194-0.61422-1.0352-2.8779-1.7106-2.2618-11.82 0.67525-11.079 0.40813-13.501-2.4296-22.023-3.7278-11.196-3.3847-14.437-4.5842-17.874l-1.6602-4.7572c-1.579-3.2715 0.44517-6.7341 3.9352-6.7315 1.821 0.00138 2.024-1.7531 1.6418-14.192-0.34645-11.277 0.02817-15.409 1.8231-20.109 3.0757-8.2095 9.1164-10.915 14.834-14.073 1.6551-0.62928 4.2753-3.7433 5.9191-7.0347l4.472-10.622c2.6493-11.179 7.1106-24.676 9.8761-36.107 0.98383-4.2757 1.7498 2.018 2.3949 3.5282 1.3684 2.4846 6.4942 21.165 9.0158 32.858 2.1322 9.8866 5.5861 15.601 10.728 17.75 6.5162 2.7226 13.155 9.3334 15.476 15.411 1.7541 4.5931 1.9848 8.1242 1.2903 19.752-0.46509 7.7877-0.38359 14.081 0.18113 13.985 3.9613-0.67232 4.4928 0.23197 3.6074 6.1367-0.49557 3.3047-2.3691 10.917-4.1634 16.916-2.4932 8.3358-3.3518 14.364-3.6418 25.566-0.20872 8.0622-0.89951 14.832-1.5351 15.044-2.4087 0.80291-4.5204-3.916-4.892-10.932-0.21206-4.0039-0.42913-7.5671-0.48238-7.9182-0.05323-0.35108-0.98274 0.99663-2.0656 2.9949-5.5786 10.295-2.7607 22.394 4.6226 26.369 25.154 9.6381 38.255 5.9934 50.611 16.926 4.565 4.0081 8.3996 10.439 9.8673 16.549 1.1305 4.7059 5.197 35.941 8.5235 65.469 3.0722 27.271 2.7349 34.379-2.1763 45.858-1.8268 4.2698-3.2643 9.4118-3.1946 11.427 3.3156 17.182 10.2 21.369 28.076 23.801 5.1472 0.70427 10.44 1.859 11.761 2.5662 1.3213 0.70714 7.8942 2.4157 14.606 3.7968 24.802 5.1032 33.79 13.312 34.863 31.839 0.50086 8.6521 0.18224 10.55-2.7391 16.315-101.93 21.896-225.12 25.413-347.76 9.7437zm122.92-107.59c4.1852-21.368 4.0437-25.288-1.3858-38.392-2.473-5.9686-4.7154-11.79-4.9833-12.937-0.67565-2.8929-5.877-12.943-6.418-12.401-0.24314 0.2436-1.606 6.4754-3.0286 13.848-1.4226 7.373-3.7689 18.714-5.214 25.201-1.4451 6.4877-2.6275 13.22-2.6275 14.961 0 1.7409 2.2113 6.4867 4.914 10.546 2.7027 4.0596 6.8293 10.468 9.1701 14.24 5.1308 8.2684 4.9454 8.5603 9.573-15.066z"/>
  </g>
  <metadata>
    <rdf:RDF>
      <cc:Work>
        <dc:format>image/svg+xml</dc:format>
        <dc:type rdf:resource="http://purl.org/dc/dcmitype/StillImage"/>
        <cc:license rdf:resource="http://creativecommons.org/licenses/publicdomain/"/>
        <dc:publisher>
          <cc:Agent rdf:about="http://openclipart.org/">
            <dc:title>Openclipart</dc:title>
          </cc:Agent>
        </dc:publisher>
        <dc:title>Sitting Buddha Silhouette</dc:title>
        <dc:date>2008-04-12T07:02:26</dc:date>
        <dc:description>Black silhouette of sitting Buddha.</dc:description>
        <dc:source>http://openclipart.org/detail/16335/sitting-buddha-silhouette-by-kattekrab-16335</dc:source>
        <dc:creator>
          <cc:Agent>
            <dc:title>kattekrab</dc:title>
          </cc:Agent>
        </dc:creator>
        <dc:subject>
          <rdf:Bag>
            <rdf:li>black</rdf:li>
            <rdf:li>buddha</rdf:li>
            <rdf:li>buddhism</rdf:li>
            <rdf:li>clip art</rdf:li>
            <rdf:li>clipart</rdf:li>
            <rdf:li>meditation</rdf:li>
            <rdf:li>religion</rdf:li>
            <rdf:li>silhouette</rdf:li>
            <rdf:li>sitting buddha</rdf:li>
          </rdf:Bag>
        </dc:subject>
      </cc:Work>
      <cc:License rdf:about="http://creativecommons.org/licenses/publicdomain/">
        <cc:permits rdf:resource="http://creativecommons.org/ns#Reproduction"/>
        <cc:permits rdf:resource="http://creativecommons.org/ns#Distribution"/>
        <cc:permits rdf:resource="http://creativecommons.org/ns#DerivativeWorks"/>
      </cc:License>
    </rdf:RDF>
  </metadata>
</svg>
